<?xml version="1.0" encoding="UTF-8"?><svg xmlns="http://www.w3.org/2000/svg" xmlns:xlink="http://www.w3.org/1999/xlink" viewBox="0 0 243.09615 242.00001"><defs><style>.g{fill:#9dc7ff;}.h{fill:#6feba4;}.i{fill:#4a8ff8;}.j{fill:#53cf88;}.k{clip-path:url(#e);}.l{clip-path:url(#d);}.m{fill:none;}.n{fill:#80ffb6;}.o{clip-path:url(#f);}</style><clipPath id="d"><rect class="m" x="76.51281" width="89.33334" height="155.03125"/></clipPath><clipPath id="e"><rect class="m" x="88.51281" y="73.69792" width="154.58334" height="157.33334"/></clipPath><clipPath id="f"><rect class="m" x="75.17947" y="83.03125" width="90.66667" height="158.96875"/></clipPath></defs><g id="a"/><g id="b"><g id="c"><g><path class="i" d="M2.76281,108.73438c.09896-4.67188,.22396-9.33854,.29167-14.01042,.17708-11.84375,3.66146-15.44271,15.36458-15.5,14.03646-.06771,28.07292,.11458,42.10938-.05729,11.94792-.14583,18.58333-6.64583,19.45313-18.57292,1.79167-14.50521,.40104-29.06771,.73958-43.59896,.26563-11.44792,3.42188-14.80208,14.92708-14.85417,11.71875-.05729,23.45313,.41667,35.14063-.17708,6.63542-.33333,7.82813,2.32813,7.61979,8.06771-.29167,8.21875-2.72917,15.80208-5.46875,23.36979-.85417,2.10417-.57813,4.40625-1.17188,6.56771-8.61458,10.75-18.40104,20.42188-28.47396,29.71354-13.71875,12.66146-24.46875,27.34896-32.88021,43.89063-1.6875,3.25521-2.58854,6.71875-2.81771,10.38542-1.82292,6.16146-1.54167,12.44792-.84896,18.66667,.66146,5.92188-1.49479,9.05729-7.54167,9.16146-15.15104,.25521-30.30208,.41667-45.44792-.10417-4.02083-.14063-7.66667-1.57813-10.28125-4.92708-4.55729-12.58854-4.46354-25.27083-.71354-38.02083Z"/><path class="n" d="M65.51281,118.375c3.42708-2.64583,4.125-6.94271,6.04167-10.44792,9.15625-16.71875,23.04167-29.21875,36.51042-42.16146,6.80208-6.53646,13.23438-13.45833,19.83333-20.20313,.08333-1.94792,1.63021-2.71354,2.94792-3.67188,7.90625-8.78646,11.69271-19.23958,12.45833-30.90625-.38021-1.97917-1.32813-4.07292,1.07292-5.51563,6.4375,2.70833,6.60938,8.78125,7.375,14.30729,1.78125,12.83333-2.18229,24.32813-9.57813,34.54167-8.25,11.40104-17.39063,22.01042-28.32292,31.10938-10.81771,9.01042-20.33333,19.38542-28.79688,30.71875-8.41667,11.27083-11.64063,23.67188-9.31771,37.51563,.45833,1.85417,.96875,3.70313,1.40104,5.57292,.1875,1.20313,.05208,2.34375-.63021,3.38542-.72917,.42708-1.49479,.51563-2.30208,.26563-10.36979-7.96875-12.75521-18.83854-11.29688-31.09896,.66146-4.51042,1.90104-8.91146,2.60417-13.41146Z"/><g class="l"><path class="h" d="M79.21072,153.95834c-3.92188-10.72396-1.875-20.89063,3.01563-30.72917,4.93229-9.91667,12.19271-18.09375,19.80729-25.98438,12.30208-12.74479,26.04167-24.01042,37.53646-37.61458,15.96875-18.90625,19.54688-36.75,10.10417-55.04688-1.56771-1.15104-2.71354-2.46354-1.75-4.58333,7.00521,.65625,8.71354,7.23958,12.66146,11.31771,6.07813,13.88542,5.14063,27.83333,.36458,41.8125-6.26563,12.63021-15.57813,22.94792-25.13021,33.08333-6.93229,11.19271-18.35417,17.77604-27.46354,26.73438-12.11979,10.71875-23.88542,21.68229-27.40625,38.52604-.21875,1.03125-.85417,1.86979-1.73958,2.48438Z"/></g><g class="k"><path class="g" d="M165.17427,202.80209c-.08333,4.625-.17188,9.25521-.25521,13.88542-2.53646,7-7.74479,9.68229-14.92188,9.45833-3.32292-.10417-6.65625,.18229-9.98438,.29167-1.69271,1.00521-3.58333,1.38021-5.47917,1.73958-9.11979,.03125-18.32813,2.25-27.30729-1.125-3.54688-3.99479-1.85938-8.90104-2.32292-13.42708-.29167-6.39583,1.17708-12.3125,4.89583-17.51042-.125-.41146,.98958-.63542,.41667-1.01042-.85417-.55208,.42188-.32292-.29167,.54688-5.85938,9.06771-9.63021,18.78646-10.28646,29.59375-.375,1.98958-.66667,4.04688-3.11979,4.63021-9.25-9.05729-8.17708-20.35938-5.85938-31.3125,2.84375-13.48438,11.69271-23.78646,20.84375-33.53646,10.72396-11.42708,22.18229-22.14583,33.23438-33.25521,13.77604-13.84375,24.09375-28.95833,21.30208-49.80208-.13542-1.03125,.23958-2.06771,.56771-3.06771-.125-1.45833-.875-3.80208-.27604-4.21875,2.34896-1.64063,2.89063,1.15104,3.80729,2.34375,5.60417,7.30208,6.68229,16.01042,7.42188,24.80208-1.58333,2.38021,.30208,5.27604-1.00521,7.69271,1.19271-.3125,1.20313-1.97917,2.38021-2.43229,2.61979-7.82813,2.90625-16.02083,1.40104-23.86979-1.11458-5.83333,1.1875-5.72396,5.33854-5.68229,8.30208,.08333,16.60417-.16667,24.91146-.27604,5.43229,.10938,10.86458,.24479,16.29688,.32813,11.55208,.17708,15.00521,3.75,15.05729,15.56771,.01563,3.10417,.16146,6.20833,.25,9.3125v34.48958c-.36979,5.45313-2.82292,9.41146-8.13542,11.32292-14.08333,.92188-28.18229,.13542-42.27604,.43229-2.84375,.05729-5.75-.51563-8.52604,.61458-12.5,1.25521-18.14063,6.98958-18.38542,19.03646-.11458,5.72396,.1875,11.45833,.30208,17.19271,0,5.75,.00521,11.49479,.00521,17.24479Z"/></g><g class="o"><path class="j" d="M163.33052,84.04688c4.59375,11.83333,1.77083,22.78125-3.96354,33.38542-7.30208,13.5-18.67708,23.55208-29.28125,34.19271-10.09375,10.13021-20.96875,19.48958-29.71354,30.91146-12.20833,15.9375-17.60938,32.8125-7.15104,51.875,1.6875,.94271,3.34375,1.92708,4.1875,3.80729,.58854,4.95833-2.57292,3.95313-5.17188,2.99479-2.39583-.88021-4.09896-2.91146-5.79167-4.81771-9.42188-10.72396-10.80208-23.57813-9.79688-37.05729,1.82292-14.89583,9.76563-26.66667,19.27604-37.63021,.85938-1.44792,2.54688-2.40625,2.57813-4.52083-2.92188-1.61458-8.02083,.08333-8.60417-5.3125,.03646-4.69792,3.45313-5.23958,6.94271-5.59375,4.10938-.41667,8.29167,.15625,14.09375-1.03125-4.70313-1.31771-8.00521-.61458-11.10938-1.23438-2.93229-.57813-5.89583-1.50521-5.92708-5.05208-.03646-3.57292,2.91146-4.67708,5.86979-5.04167,5.94271-.73438,11.92708-.20313,17.89583-.375,2.31771-.06771,4.68229,.09375,7.86979-1.33854-6.40104-.81771-11.98438,.17708-17.39583-.76563-6.1875-1.07813-6.95833-4.07292-2.67188-9.52604,10.59375-1.84375,21.28646-.20833,31.86458-.97917,.74479-.25,1.66146-.34375,1.53646-1.48438-7.32813-1.39063-14.91146,1.23438-22.06771-1.72917-2.16667-1.98958-2.38021-4.26563-1.02604-6.76563,6.17188-3.96875,13.09896-2.04688,19.71875-2.41667,3.88021-.21875,7.78125-.04167,12.56771-.125-4.40625-.32813-7.99479,.15104-11.44271-.82813-3.17188-.90625-5.91667-2.42708-5.82813-6.26042,.09896-4.16667,3.28125-4.86979,6.51563-5.16146,5.41146-.48958,10.85417-.02083,16.49479-.3125-.26563-.04688-.3125-.26563-.38542-.27083-4.63542-.40104-8.90104-1.35938-9.46354-7.07813-.13542-1.41667,1.0625-2.26042,2.33333-2.78125,5.58333-1.55208,11.54688,.73438,17.04688-1.67708Z"/></g></g></g></g></svg>