<?xml version="1.0" encoding="UTF-8"?><svg xmlns="http://www.w3.org/2000/svg" viewBox="0 0 115.59932 115.46431"><defs><style>.d{fill:#ee2926;}.e{fill:#0a8141;}.f{fill:#ed1c24;}.g{fill:#f05a5a;}.h{fill:#194fa2;}</style></defs><g id="a"/><g id="b"><g id="c"><g><path class="f" d="M1.31729,51.88048c.04803-2.22878,.10912-4.45737,.14155-6.68637,.08221-5.64993,1.74759-7.36632,7.3316-7.39336,6.69959-.03244,13.40018,.05314,20.09894-.02804,5.70421-.06913,8.8711-3.17151,9.28696-8.86278,.85398-6.92078,.19065-13.86864,.35128-20.8026,.12651-5.4607,1.63429-7.06069,7.12593-7.08624,5.59215-.02602,11.19475,.19795,16.77275-.08375,3.16704-.15994,3.73573,1.11141,3.63802,3.84987-.13984,3.91917-1.30398,7.53721-2.61202,11.15039-.40803,1.00272-.2748,2.10228-.55796,3.13322-4.11231,5.12818-8.78357,9.74291-13.59056,14.17638-6.54867,6.03983-11.67911,13.04818-15.69505,20.94059-.80535,1.55476-1.23544,3.20727-1.34522,4.95503-.86996,2.94016-.73667,5.93993-.40482,8.90773,.31582,2.82447-.71344,4.32153-3.5997,4.36985-7.23077,.12105-14.46289,.20025-21.69154-.05045-1.92108-.06663-3.65947-.7519-4.90781-2.34857-2.17578-6.00631-2.13019-12.05757-.34233-18.14091Z"/><path class="e" d="M31.26935,56.47858c1.63556-1.26231,1.96808-3.31129,2.88416-4.98319,4.37124-7.97781,10.99863-13.94211,17.42565-20.11749,3.24628-3.11917,6.31741-6.42048,9.46771-9.63945,.03891-.92826,.77787-1.29531,1.40546-1.75163,3.7754-4.19261,5.58146-9.17903,5.94861-14.74547-.1817-.94545-.63455-1.94369,.51115-2.63094,3.0735,1.29025,3.15413,4.18861,3.52023,6.82564,.85005,6.12286-1.04139,11.60753-4.57085,16.4812-3.93842,5.43838-8.30284,10.50081-13.51923,14.84293-5.16455,4.29894-9.70503,9.24881-13.74557,14.65623-4.01776,5.37694-5.55505,11.29273-4.44693,17.89917,.21947,.88566,.46318,1.76696,.66809,2.66003,.09076,.57278,.0244,1.11664-.30169,1.61297-.34707,.20569-.71234,.24645-1.09774,.1278-4.94955-3.80112-6.08731-8.98728-5.391-14.83778,.31492-2.15152,.90534-4.25115,1.24196-6.40002Z"/><path class="g" d="M37.80785,73.45835c-1.87157-5.11794-.89594-9.96917,1.43903-14.66294,2.35408-4.73221,5.81938-8.6329,9.4545-12.39733,5.8716-6.08043,12.42896-11.45635,17.9154-17.94816,7.6233-9.02024,9.3303-17.53262,4.82407-26.26424-.74953-.54863-1.29669-1.17458-.83573-2.18568,3.34358,.31384,4.15954,3.45432,6.04376,5.40009,2.90002,6.62515,2.45413,13.27927,.17277,19.94928-2.99047,6.0266-7.43472,10.94934-11.9947,15.78421-3.30763,5.34231-8.75875,8.48176-13.10688,12.75707-5.78584,5.11481-11.4017,10.34503-13.08303,18.3805-.10318,.49309-.40573,.89394-.82919,1.18719Z"/><path class="d" d="M78.83808,96.76078c-.04056,2.20798-.08113,4.41599-.1219,6.62477-1.20964,3.3414-3.69508,4.62154-7.12108,4.51389-1.58609-.04985-3.17804,.08722-4.76735,.13951-.8074,.47828-1.70906,.65856-2.61471,.82887-4.35228,.01532-8.74804,1.07416-13.03419-.53523-1.69204-1.9075-.88574-4.24735-1.10913-6.4071-.13722-3.05216,.56352-5.87486,2.33708-8.35541-.05818-.19665,.47399-.30357,.20028-.48088-.40879-.26483,.20192-.15351-.13898,.25933-2.79792,4.32872-4.59669,8.96573-4.90947,14.12117-.18029,.95021-.31897,1.93023-1.49042,2.20789-4.415-4.32-3.90178-9.71334-2.7976-14.93897,1.3593-6.433,5.58274-11.34977,9.94983-16.0016,5.11821-5.45193,10.5878-10.56441,15.86403-15.86587,6.57412-6.60552,11.49878-13.81754,10.16701-23.76307-.06572-.49055,.11498-.98583,.27149-1.46144-.06163-.69642-.41844-1.81529-.13281-2.01468,1.12081-.78244,1.38022,.55029,1.81707,1.11904,2.67546,3.48316,3.19056,7.63953,3.5438,11.83335-.75645,1.13608,.14245,2.5176-.48156,3.67123,.57132-.14911,.57562-.94496,1.13792-1.16089,1.25052-3.73623,1.38513-7.6443,.66814-11.39022-.53259-2.78247,.5668-2.73054,2.54657-2.71033,3.96267,.04045,7.92696-.07817,11.89062-.1311,2.59334,.05256,5.1865,.11583,7.77997,.15546,5.51428,.08425,7.16161,1.79071,7.18707,7.42897,.00669,1.48103,.07773,2.96176,.11925,4.44264,.00011,5.48511,.00021,10.97021,.0003,16.45533-.17757,2.6031-1.34921,4.49223-3.88355,5.40258-6.72248,.43984-13.45305,.06624-20.17824,.20592-1.35867,.02821-2.74622-.24515-4.07027,.29393-5.96541,.59873-8.65937,3.33551-8.77494,9.08178-.05497,2.73255,.08986,5.46912,.14416,8.20391,.00053,2.74241,.00107,5.4848,.0016,8.22721Z"/><path class="h" d="M77.95771,40.10034c2.19413,5.64521,.84713,10.86949-1.89183,15.93002-3.4858,6.44043-8.91289,11.23561-13.97615,16.31419-4.81762,4.83218-10.00819,9.29854-14.18245,14.74723-5.82567,7.60431-8.40541,15.65654-3.41293,24.75165,.80591,.45068,1.59591,.91882,1.99963,1.81672,.28027,2.36484-1.22935,1.88513-2.46979,1.4284-1.14216-.4205-1.95538-1.38939-2.76265-2.29849-4.49693-5.11748-5.15689-11.24865-4.67796-17.68001,.87199-7.10804,4.66237-12.72462,9.20229-17.95518,.40826-.69068,1.21493-1.14894,1.22854-2.15744-1.39315-.76876-3.82701,.03933-4.10504-2.53552,.01579-2.23962,1.64747-2.49874,3.3123-2.66791,1.96228-.19939,3.95895,.07498,6.72744-.49129-2.24555-.6293-3.82009-.29494-5.30136-.58837-1.39977-.27734-2.81384-.72024-2.83007-2.41107-.01638-1.70503,1.39081-2.23266,2.80188-2.40634,2.8359-.34908,5.69408-.09612,8.54135-.17793,1.10806-.03184,2.23468,.04408,3.75746-.63808-3.05571-.3909-5.72134,.08411-8.30346-.36632-2.9532-.51512-3.3207-1.94356-1.27652-4.54643,5.0567-.87822,10.16083-.09937,15.21081-.46621,.35434-.11841,.79166-.16376,.73291-.7079-3.49857-.66421-7.11828,.58816-10.53325-.82551-1.03457-.94835-1.13593-2.03403-.4906-3.22734,2.94736-1.8946,6.2533-.9767,9.41392-1.15327,1.85075-.10339,3.71237-.01969,5.99665-.0604-2.10359-.15581-3.81591,.07182-5.46155-.39561-1.51436-.43015-2.8228-1.15602-2.78029-2.98686,.04617-1.98811,1.56535-2.32369,3.10805-2.46225,2.58434-.23213,5.18261-.00943,7.87291-.14754-.12562-.02416-.14708-.12776-.18326-.13085-2.21164-.18969-4.247-.64742-4.51534-3.37743-.06647-.67627,.5059-1.07768,1.11159-1.32647,2.66559-.74077,5.51144,.3499,8.13675-.80018Z"/></g></g></g></svg>